<svg data-v-fde0c5aa="" xmlns="http://www.w3.org/2000/svg" viewBox="0 0 300 300" class="font"><!----><defs data-v-fde0c5aa=""><!----></defs><rect data-v-fde0c5aa="" fill="transparent" x="0" y="0" width="300px" height="300px" class="logo-background-square"></rect><defs data-v-fde0c5aa=""><linearGradient data-v-fde0c5aa="" gradientTransform="rotate(25)" id="966db0cc-e221-4bcf-861d-c3adb336eaef" x1="0%" y1="0%" x2="100%" y2="0%"><stop data-v-fde0c5aa="" offset="0%" stop-color="#707070" stop-opacity="1"></stop><stop data-v-fde0c5aa="" offset="100%" stop-color="#6A4F4C" stop-opacity="1"></stop></linearGradient></defs><g data-v-fde0c5aa="" id="0d1b8638-f021-4545-9970-ce57d34eb383" fill="url(#966db0cc-e221-4bcf-861d-c3adb336eaef)" transform="matrix(3.98117995262146,0,0,3.98117995262146,38.84545783383935,108.9739408053678)"><path d="M2.32 13.65L2.32 13.65Q1.46 13.65 0.88 13.08L0.88 13.08L0.88 13.08Q0.29 12.52 0.29 11.55L0.29 11.55L0.29 11.55Q0.29 10.64 0.95 10.09L0.95 10.09L0.95 10.09Q1.61 9.53 2.51 9.30L2.51 9.30L2.51 9.30Q3.40 9.07 4.23 9.04L4.23 9.04L4.23 9.04Q4.20 8.43 3.91 8.16L3.91 8.16L3.91 8.16Q3.63 7.90 2.97 7.90L2.97 7.90L2.97 7.90Q2.51 7.90 2.06 8.02L2.06 8.02L2.06 8.02Q1.62 8.15 1.05 8.43L1.05 8.43L0.90 7.01L0.90 7.01Q2.17 6.40 3.44 6.40L3.44 6.40L3.44 6.40Q4.68 6.40 5.33 7.07L5.33 7.07L5.33 7.07Q5.98 7.74 5.98 9.21L5.98 9.21L5.98 11.10L5.98 11.10Q5.98 11.63 6.03 11.87L6.03 11.87L6.03 11.87Q6.08 12.10 6.20 12.16L6.20 12.16L6.20 12.16Q6.31 12.22 6.59 12.22L6.59 12.22L6.82 12.22L6.66 13.65L6.03 13.65L6.03 13.65Q5.46 13.65 5.07 13.43L5.07 13.43L5.07 13.43Q4.68 13.22 4.47 12.84L4.47 12.84L4.47 12.84Q4.13 13.22 3.55 13.43L3.55 13.43L3.55 13.43Q2.97 13.65 2.32 13.65L2.32 13.65ZM3.05 12.32L3.05 12.32Q3.32 12.32 3.65 12.19L3.65 12.19L3.65 12.19Q3.99 12.05 4.24 11.82L4.24 11.82L4.24 10.22L4.24 10.22Q3.40 10.26 2.76 10.58L2.76 10.58L2.76 10.58Q2.11 10.91 2.11 11.48L2.11 11.48L2.11 11.48Q2.11 11.91 2.34 12.12L2.34 12.12L2.34 12.12Q2.56 12.32 3.05 12.32L3.05 12.32ZM11.44 6.40L11.44 6.40Q12.43 6.40 13.15 6.89L13.15 6.89L13.15 6.89Q13.86 7.38 14.22 8.20L14.22 8.20L14.22 8.20Q14.59 9.03 14.59 10.02L14.59 10.02L14.59 10.02Q14.59 11.02 14.22 11.84L14.22 11.84L14.22 11.84Q13.86 12.67 13.15 13.16L13.15 13.16L13.15 13.16Q12.43 13.65 11.44 13.65L11.44 13.65L11.44 13.65Q10.81 13.65 10.37 13.52L10.37 13.52L10.37 13.52Q9.93 13.38 9.52 13.09L9.52 13.09L9.52 16.90L7.78 16.90L7.78 6.51L9.18 6.51L9.37 7.15L9.37 7.15Q9.81 6.78 10.30 6.59L10.30 6.59L10.30 6.59Q10.79 6.40 11.44 6.40L11.44 6.40ZM11.17 12.22L11.17 12.22Q11.94 12.22 12.38 11.62L12.38 11.62L12.38 11.62Q12.81 11.02 12.81 10.02L12.81 10.02L12.81 10.02Q12.81 9.03 12.38 8.43L12.38 8.43L12.38 8.43Q11.94 7.83 11.17 7.83L11.17 7.83L11.17 7.83Q10.30 7.83 9.87 8.41L9.87 8.41L9.87 8.41Q9.44 9.00 9.44 10.02L9.44 10.02L9.44 10.02Q9.44 11.05 9.87 11.63L9.87 11.63L9.87 11.63Q10.30 12.22 11.17 12.22L11.17 12.22ZM15.79 5.45L15.79 3.71L17.53 3.71L17.53 5.45L15.79 5.45ZM15.79 13.51L15.79 6.51L17.53 6.51L17.53 13.51L15.79 13.51ZM29.39 13.51L27.52 13.51L26.68 6.94L24.18 11.45L21.66 6.96L20.82 13.51L18.96 13.51L20.31 3.71L21.78 3.71L24.18 8.18L26.56 3.71L28.03 3.71L29.39 13.51ZM32.33 13.65L32.33 13.65Q31.46 13.65 30.88 13.08L30.88 13.08L30.88 13.08Q30.30 12.52 30.30 11.55L30.30 11.55L30.30 11.55Q30.30 10.64 30.95 10.09L30.95 10.09L30.95 10.09Q31.61 9.53 32.51 9.30L32.51 9.30L32.51 9.30Q33.40 9.07 34.23 9.04L34.23 9.04L34.23 9.04Q34.20 8.43 33.92 8.16L33.92 8.16L33.92 8.16Q33.63 7.90 32.97 7.90L32.97 7.90L32.97 7.90Q32.51 7.90 32.07 8.02L32.07 8.02L32.07 8.02Q31.63 8.15 31.05 8.43L31.05 8.43L30.90 7.01L30.90 7.01Q32.17 6.40 33.45 6.40L33.45 6.40L33.45 6.40Q34.68 6.40 35.33 7.07L35.33 7.07L35.33 7.07Q35.98 7.74 35.98 9.21L35.98 9.21L35.98 11.10L35.98 11.10Q35.98 11.63 36.03 11.87L36.03 11.87L36.03 11.87Q36.08 12.10 36.20 12.16L36.20 12.16L36.20 12.16Q36.32 12.22 36.60 12.22L36.60 12.22L36.82 12.22L36.67 13.65L36.04 13.65L36.04 13.65Q35.46 13.65 35.07 13.43L35.07 13.43L35.07 13.43Q34.68 13.22 34.47 12.84L34.47 12.84L34.47 12.84Q34.13 13.22 33.55 13.43L33.55 13.43L33.55 13.43Q32.97 13.65 32.33 13.65L32.33 13.65ZM33.05 12.32L33.05 12.32Q33.32 12.32 33.66 12.19L33.66 12.19L33.66 12.19Q33.99 12.05 34.24 11.82L34.24 11.82L34.24 10.22L34.24 10.22Q33.40 10.26 32.76 10.58L32.76 10.58L32.76 10.58Q32.12 10.91 32.12 11.48L32.12 11.48L32.12 11.48Q32.12 11.91 32.34 12.12L32.34 12.12L32.34 12.12Q32.56 12.32 33.05 12.32L33.05 12.32ZM41.03 13.65L41.03 13.65Q39.87 13.65 39.04 13.17L39.04 13.17L39.04 13.17Q38.21 12.68 37.79 11.86L37.79 11.86L37.79 11.86Q37.37 11.03 37.37 10.02L37.37 10.02L37.37 10.02Q37.37 9.00 37.79 8.17L37.79 8.17L37.79 8.17Q38.21 7.34 39.05 6.85L39.05 6.85L39.05 6.85Q39.89 6.37 41.09 6.37L41.09 6.37L41.09 6.37Q42.17 6.37 42.97 6.82L42.97 6.82L42.83 8.22L42.83 8.22Q42.07 7.83 41.26 7.83L41.26 7.83L41.26 7.83Q40.26 7.83 39.70 8.43L39.70 8.43L39.70 8.43Q39.14 9.03 39.14 10.02L39.14 10.02L39.14 10.02Q39.14 10.98 39.72 11.60L39.72 11.60L39.72 11.60Q40.29 12.22 41.24 12.22L41.24 12.22L41.24 12.22Q42.04 12.22 42.84 11.76L42.84 11.76L42.99 13.23L42.99 13.23Q42.62 13.43 42.11 13.54L42.11 13.54L42.11 13.54Q41.59 13.65 41.03 13.65L41.03 13.65ZM44.16 13.51L44.16 6.51L45.78 6.51L45.82 7.25L45.82 7.25Q46.13 6.90 46.61 6.64L46.61 6.64L46.61 6.64Q47.10 6.37 47.63 6.37L47.63 6.37L47.63 6.37Q47.80 6.37 47.94 6.40L47.94 6.40L47.81 8.11L47.81 8.11Q47.54 8.04 47.21 8.04L47.21 8.04L47.21 8.04Q46.77 8.04 46.41 8.24L46.41 8.24L46.41 8.24Q46.05 8.44 45.89 8.74L45.89 8.74L45.89 13.51L44.16 13.51ZM51.95 13.65L51.95 13.65Q50.85 13.65 50.04 13.16L50.04 13.16L50.04 13.16Q49.22 12.67 48.79 11.84L48.79 11.84L48.79 11.84Q48.36 11.02 48.36 10.02L48.36 10.02L48.36 10.02Q48.36 9.03 48.79 8.19L48.79 8.19L48.79 8.19Q49.22 7.35 50.04 6.86L50.04 6.86L50.04 6.86Q50.85 6.37 51.95 6.37L51.95 6.37L51.95 6.37Q53.06 6.37 53.87 6.86L53.87 6.86L53.87 6.86Q54.68 7.35 55.12 8.19L55.12 8.19L55.12 8.19Q55.55 9.03 55.55 10.02L55.55 10.02L55.55 10.02Q55.55 11.02 55.12 11.84L55.12 11.84L55.12 11.84Q54.68 12.67 53.87 13.16L53.87 13.16L53.87 13.16Q53.06 13.65 51.95 13.65L51.95 13.65ZM51.95 12.22L51.95 12.22Q52.81 12.22 53.29 11.62L53.29 11.62L53.29 11.62Q53.77 11.02 53.77 10.02L53.77 10.02L53.77 10.02Q53.77 9.02 53.29 8.41L53.29 8.41L53.29 8.41Q52.81 7.80 51.95 7.80L51.95 7.80L51.95 7.80Q51.10 7.80 50.62 8.41L50.62 8.41L50.62 8.41Q50.13 9.02 50.13 10.02L50.13 10.02L50.13 10.02Q50.13 11.02 50.62 11.62L50.62 11.62L50.62 11.62Q51.10 12.22 51.95 12.22L51.95 12.22Z"></path></g><!----><!----></svg>